<?xml version="1.0" standalone="no"?>
<!DOCTYPE svg PUBLIC "-//W3C//DTD SVG 20010904//EN"
        "http://www.w3.org/TR/2001/REC-SVG-20010904/DTD/svg10.dtd">
<svg version="1.0" xmlns="http://www.w3.org/2000/svg"
     width="3333.000000pt" height="3333.000000pt" viewBox="0 0 3333.000000 3333.000000"
     preserveAspectRatio="xMidYMid meet">
    <metadata>
        Created by potrace 1.11, written by Peter Selinger 2001-2013
    </metadata>
    <g transform="translate(0.000000,3333.000000) scale(0.100000,-0.100000)"
       fill="#000000" stroke="none">
        <path d="M12568 31935 c-2 -2 -66 -6 -143 -10 -152 -7 -243 -12 -345 -20 -36
-3 -94 -7 -130 -10 -36 -3 -83 -7 -105 -9 -22 -2 -74 -7 -115 -11 -41 -4 -86
-8 -100 -10 -14 -2 -50 -6 -80 -9 -101 -12 -135 -16 -170 -21 -19 -3 -55 -7
-80 -10 -25 -4 -56 -8 -70 -10 -14 -2 -72 -11 -130 -20 -125 -18 -143 -21
-260 -41 -32 -6 -400 -75 -420 -79 -333 -71 -773 -186 -1065 -277 -55 -18
-104 -33 -110 -34 -65 -16 -474 -162 -700 -251 -1016 -399 -1961 -943 -2800
-1612 -66 -53 -131 -105 -145 -117 -89 -76 -247 -210 -256 -219 -357 -318
-699 -663 -980 -990 -38 -44 -77 -89 -87 -100 -28 -30 -313 -387 -383 -480
-142 -187 -477 -677 -514 -750 -4 -9 -38 -64 -111 -183 -119 -193 -520 -952
-503 -952 4 0 2 -6 -4 -13 -6 -6 -38 -75 -72 -152 -34 -77 -70 -158 -80 -180
-183 -413 -424 -1131 -546 -1623 -2 -9 -18 -73 -34 -142 -65 -263 -159 -745
-185 -946 -4 -27 -10 -67 -15 -89 -7 -33 -20 -134 -25 -195 -1 -8 -5 -35 -8
-60 -4 -25 -9 -67 -12 -95 -3 -27 -7 -68 -10 -90 -11 -98 -15 -135 -20 -205
-3 -41 -8 -93 -10 -115 -50 -487 -50 -1505 0 -2029 3 -28 7 -78 10 -111 12
-140 17 -191 20 -205 2 -8 7 -48 10 -88 4 -40 8 -80 10 -90 1 -9 6 -46 10 -82
3 -36 8 -72 10 -80 2 -8 7 -39 10 -69 4 -30 9 -63 11 -75 3 -12 7 -41 10 -66
3 -25 10 -69 15 -98 6 -29 12 -67 15 -85 2 -18 6 -43 9 -57 3 -14 8 -38 10
-55 7 -40 26 -144 31 -173 4 -22 64 -303 85 -397 5 -22 22 -96 39 -165 17 -69
32 -132 34 -140 93 -377 344 -1128 491 -1465 7 -16 32 -75 55 -130 92 -216
169 -380 293 -624 119 -236 135 -265 250 -466 148 -259 315 -524 492 -780 71
-102 338 -463 371 -501 11 -12 30 -36 44 -54 36 -47 204 -250 245 -296 11 -12
31 -35 44 -50 244 -289 708 -749 1046 -1038 44 -38 91 -78 105 -90 294 -252
791 -612 1175 -850 175 -108 267 -164 362 -217 18 -11 48 -27 66 -37 232 -132
639 -336 887 -446 85 -38 173 -77 195 -86 61 -27 461 -184 535 -210 36 -12 79
-28 95 -35 41 -17 370 -125 535 -175 228 -69 706 -194 870 -226 13 -3 56 -12
95 -20 38 -9 79 -17 90 -20 11 -2 54 -11 95 -19 41 -8 86 -17 100 -20 13 -2
40 -7 60 -10 20 -3 47 -8 60 -10 25 -5 255 -44 300 -50 82 -12 242 -34 285
-40 28 -3 61 -8 75 -10 36 -5 105 -13 175 -20 33 -3 76 -8 95 -10 40 -5 126
-13 328 -30 316 -26 641 -38 1037 -38 262 0 559 7 745 18 139 8 269 17 300 20
19 2 73 7 120 10 47 3 96 8 110 10 14 3 52 7 85 10 33 2 85 8 115 11 30 4 66
8 80 9 64 7 207 26 220 30 8 2 40 6 71 10 31 3 67 8 80 10 13 3 44 8 69 11 25
3 52 7 60 9 8 3 33 7 55 10 22 3 51 8 65 11 65 12 77 14 115 20 22 3 117 21
210 40 94 20 181 37 195 40 14 3 41 9 60 14 19 5 46 11 60 13 14 3 43 10 65
15 22 6 51 13 65 15 50 9 398 100 510 134 63 19 123 36 133 38 78 17 715 232
731 246 6 5 16 9 22 9 12 0 267 97 329 125 17 7 65 27 107 44 75 30 133 54
213 91 22 10 65 29 95 43 619 275 1256 635 1840 1041 80 55 152 106 160 112 8
7 79 60 156 117 78 58 150 112 160 120 113 92 195 157 224 177 188 129 385
358 474 552 38 80 81 220 91 290 11 75 13 261 4 328 -15 107 -18 122 -39 200
-45 162 -88 257 -262 580 -58 107 -125 233 -150 280 -161 304 -259 443 -418
598 -143 138 -345 258 -485 287 -257 53 -453 33 -709 -70 -178 -71 -300 -143
-536 -315 -270 -195 -600 -417 -795 -533 -505 -302 -949 -523 -1435 -715 -121
-47 -220 -85 -230 -88 -3 0 -12 -4 -20 -7 -18 -9 -409 -137 -430 -142 -8 -2
-80 -22 -159 -44 -80 -23 -154 -43 -165 -45 -12 -2 -77 -18 -146 -35 -69 -18
-136 -34 -150 -36 -14 -2 -70 -14 -125 -25 -55 -12 -115 -23 -132 -25 -18 -3
-52 -9 -75 -14 -49 -11 -150 -28 -223 -36 -27 -3 -61 -8 -75 -10 -53 -10 -87
-14 -145 -20 -33 -4 -76 -8 -95 -10 -212 -23 -292 -29 -520 -40 -248 -12 -724
-7 -915 10 -27 2 -90 7 -140 10 -49 3 -101 8 -115 10 -14 2 -54 6 -90 9 -36 4
-75 8 -87 10 -12 3 -48 7 -80 11 -32 3 -67 8 -78 10 -11 2 -40 7 -65 10 -25 3
-56 7 -70 9 -67 12 -148 26 -180 31 -484 77 -1231 306 -1688 516 -35 16 -65
29 -68 29 -8 0 -349 169 -444 221 -287 155 -601 355 -857 546 -65 48 -120 90
-123 93 -3 3 -50 41 -105 85 -179 143 -336 285 -545 494 -225 226 -235 237
-397 426 -90 107 -176 215 -336 426 -76 100 -312 460 -379 577 -298 526 -473
909 -644 1405 -51 149 -124 386 -139 449 -2 10 -16 62 -30 115 -15 54 -29 109
-31 123 -3 14 -7 33 -10 42 -3 9 -6 25 -8 35 -3 10 -11 48 -20 84 -8 37 -17
78 -20 90 -15 78 -39 197 -42 217 -2 12 -8 48 -14 80 -5 31 -12 75 -15 97 -3
22 -10 65 -15 95 -6 30 -12 75 -15 100 -3 25 -7 61 -10 80 -2 19 -7 54 -10 78
-3 23 -7 59 -10 80 -2 20 -7 66 -10 102 -3 36 -7 90 -10 120 -2 30 -7 98 -11
150 -3 52 -8 120 -10 150 -5 76 -5 728 0 820 10 167 17 277 21 315 2 22 7 76
10 120 3 44 8 91 10 105 3 14 7 52 10 85 4 33 8 71 10 85 30 209 27 193 44
300 10 61 14 79 26 140 2 14 7 39 10 55 8 50 54 276 65 314 5 20 11 47 14 61
3 14 12 54 21 90 9 36 18 72 20 80 7 33 68 242 107 365 23 72 43 135 44 140 4
19 111 309 153 413 190 478 458 982 749 1407 73 107 288 399 314 426 7 8 31
37 52 64 42 53 70 85 181 210 196 222 475 496 660 651 39 32 72 61 75 64 9 12
244 195 340 267 712 527 1610 946 2500 1166 109 27 244 59 265 62 11 2 31 6
45 9 14 4 39 9 55 11 17 3 62 12 100 20 39 7 88 16 110 20 23 3 50 7 60 9 11
2 42 7 68 10 27 4 58 9 69 11 11 3 46 7 77 10 31 4 63 8 71 10 8 2 47 7 85 11
39 3 77 8 85 9 9 2 60 6 115 10 55 4 111 8 125 11 157 25 1001 25 1220 -1 19
-2 69 -7 110 -10 112 -9 193 -18 272 -31 15 -2 49 -6 74 -9 26 -3 72 -9 103
-15 31 -5 74 -12 96 -15 22 -3 51 -8 65 -11 14 -3 36 -8 50 -10 14 -3 36 -7
50 -9 14 -3 39 -8 55 -10 59 -10 312 -67 405 -92 52 -14 102 -26 112 -28 81
-16 470 -141 673 -217 364 -136 798 -331 1075 -485 30 -17 97 -54 149 -83 215
-119 554 -332 776 -489 102 -71 121 -83 254 -150 211 -107 432 -182 586 -199
79 -9 246 -8 314 2 119 17 266 78 395 165 81 54 239 205 318 306 65 82 596
877 655 980 92 161 164 347 188 485 4 19 11 58 15 85 13 70 4 319 -13 385 -38
145 -86 250 -170 374 -56 82 -204 230 -302 301 -44 32 -113 83 -154 114 -40
31 -86 65 -101 76 -16 11 -82 58 -147 105 -65 47 -138 98 -163 115 -25 16 -47
32 -50 35 -13 14 -496 320 -505 320 -2 0 -28 15 -57 33 -29 19 -78 47 -108 64
-30 16 -73 41 -95 53 -114 66 -539 282 -730 370 -434 201 -947 395 -1430 540
-93 29 -177 53 -185 56 -8 2 -49 13 -90 24 -63 18 -363 94 -410 105 -47 11
-167 38 -251 55 -52 11 -106 23 -120 26 -13 3 -33 7 -44 8 -11 2 -67 13 -125
24 -58 11 -150 28 -205 37 -219 35 -292 46 -330 50 -22 3 -69 9 -105 15 -36 6
-87 12 -115 15 -27 3 -66 7 -85 9 -31 4 -131 15 -285 31 -27 3 -81 7 -120 10
-38 3 -97 7 -130 10 -102 8 -226 16 -320 21 -101 6 -1132 14 -1137 9z"/>
        <path d="M19858 23365 c-1 -1 -82 -6 -178 -9 -96 -4 -195 -9 -220 -10 -80 -6
-244 -18 -285 -21 -121 -10 -184 -16 -215 -20 -19 -2 -62 -7 -95 -10 -91 -9
-137 -15 -175 -20 -19 -2 -55 -7 -80 -10 -25 -3 -56 -8 -70 -10 -14 -2 -49 -7
-79 -10 -30 -4 -63 -9 -75 -11 -12 -2 -39 -6 -61 -9 -22 -3 -50 -7 -61 -9 -12
-2 -39 -7 -60 -10 -22 -4 -68 -11 -104 -17 -36 -6 -74 -13 -85 -14 -11 -2 -45
-9 -75 -15 -30 -6 -66 -13 -80 -15 -48 -9 -166 -33 -265 -55 -55 -12 -111 -24
-125 -26 -52 -10 -463 -115 -547 -140 -48 -14 -95 -27 -103 -29 -37 -8 -448
-139 -560 -178 -151 -53 -470 -172 -525 -197 -22 -10 -96 -41 -165 -70 -249
-103 -782 -360 -955 -460 -22 -13 -65 -37 -95 -53 -30 -17 -84 -48 -119 -69
-34 -21 -65 -38 -66 -38 -11 0 -410 -252 -563 -357 -160 -108 -254 -176 -612
-442 -166 -123 -303 -281 -378 -435 -55 -111 -60 -126 -87 -240 -20 -85 -23
-121 -21 -245 4 -211 46 -380 148 -590 64 -130 62 -127 381 -606 345 -519 415
-608 576 -739 55 -45 194 -136 207 -136 2 0 28 -11 58 -25 130 -60 351 -85
531 -62 156 20 369 94 576 198 132 67 151 78 254 150 499 351 1000 633 1600
899 22 9 105 43 185 75 80 31 154 61 165 65 28 12 58 23 70 26 6 1 55 19 110
39 244 89 587 186 915 259 56 13 277 56 305 61 17 2 40 6 52 9 11 2 43 8 70
12 26 3 55 8 63 9 9 2 43 6 75 10 33 4 68 9 79 11 10 2 44 6 75 9 31 4 67 8
81 10 23 4 79 9 210 20 313 26 970 26 1245 1 17 -2 66 -6 110 -10 44 -4 91 -9
105 -11 14 -2 56 -6 93 -10 37 -3 76 -8 85 -10 9 -1 42 -6 73 -9 31 -4 66 -8
77 -11 11 -2 42 -6 69 -10 26 -3 68 -10 93 -16 25 -5 61 -11 80 -13 19 -2 103
-18 185 -35 83 -17 159 -33 170 -35 11 -2 40 -9 65 -16 25 -7 54 -14 65 -16
11 -2 104 -26 205 -54 448 -122 854 -275 1263 -474 346 -169 688 -371 972
-574 113 -81 230 -167 235 -173 3 -4 28 -24 55 -44 259 -195 668 -582 905
-855 30 -34 59 -68 65 -74 64 -66 365 -457 441 -572 21 -33 41 -61 44 -64 10
-9 194 -301 253 -402 251 -430 490 -963 645 -1438 61 -189 143 -471 158 -550
3 -14 14 -59 25 -100 11 -41 22 -91 25 -110 3 -19 12 -64 21 -100 8 -36 19
-87 24 -115 4 -27 11 -62 14 -78 5 -28 21 -119 30 -174 3 -18 7 -45 10 -60 11
-70 42 -313 50 -398 3 -33 8 -76 11 -95 2 -19 7 -71 10 -115 3 -44 7 -102 9
-130 22 -302 22 -877 0 -1175 -13 -171 -16 -206 -20 -248 -3 -26 -8 -69 -10
-97 -3 -27 -8 -66 -10 -85 -2 -19 -7 -59 -11 -89 -3 -30 -7 -62 -9 -71 -2 -9
-6 -41 -10 -70 -4 -29 -9 -62 -11 -74 -2 -12 -7 -41 -10 -66 -3 -25 -7 -52 -9
-60 -2 -8 -7 -30 -10 -47 -11 -68 -15 -91 -35 -193 -11 -58 -28 -134 -36 -169
-9 -36 -17 -72 -19 -80 -2 -9 -11 -47 -20 -86 -9 -38 -18 -77 -20 -85 -2 -8
-10 -40 -19 -71 -9 -31 -18 -65 -21 -75 -2 -11 -18 -66 -35 -124 -178 -601
-419 -1162 -728 -1695 -132 -227 -290 -468 -441 -670 -81 -109 -250 -322 -293
-370 -14 -16 -36 -41 -48 -55 -109 -126 -160 -180 -330 -350 -264 -265 -354
-346 -591 -535 -79 -63 -149 -118 -154 -123 -6 -4 -44 -32 -85 -63 -453 -337
-1020 -649 -1595 -879 -180 -71 -599 -215 -663 -226 -13 -3 -42 -11 -66 -19
-41 -14 -327 -85 -418 -104 -24 -5 -54 -12 -68 -15 -14 -4 -72 -15 -130 -26
-58 -11 -114 -21 -125 -24 -11 -2 -56 -9 -100 -16 -44 -6 -91 -13 -105 -15
-40 -7 -218 -30 -300 -40 -286 -32 -566 -47 -890 -47 -175 -1 -478 8 -570 17
-19 2 -78 6 -130 9 -52 4 -106 9 -120 11 -14 2 -54 7 -90 10 -36 4 -76 8 -90
10 -14 2 -79 11 -145 20 -66 9 -158 22 -205 30 -47 8 -103 17 -125 20 -22 4
-48 8 -57 11 -10 3 -30 7 -45 10 -186 32 -561 125 -853 212 -171 51 -583 196
-678 238 -17 8 -83 35 -145 60 -355 144 -838 392 -1262 647 -117 71 -502 323
-592 387 -33 25 -71 52 -83 60 -12 8 -81 58 -153 111 -160 116 -251 171 -388
237 -614 295 -1125 142 -1542 -461 -26 -37 -86 -141 -133 -230 -145 -271 -211
-395 -264 -492 -49 -90 -89 -169 -110 -220 -12 -27 -25 -59 -29 -70 -23 -54
-56 -163 -67 -220 -2 -11 -6 -31 -9 -45 -2 -14 -7 -38 -10 -55 -11 -52 -13
-257 -4 -320 14 -103 20 -128 50 -220 79 -239 249 -460 495 -646 55 -41 101
-77 104 -80 3 -3 79 -63 170 -133 91 -70 172 -133 180 -139 97 -77 698 -487
714 -487 4 0 28 -15 54 -33 26 -18 115 -72 197 -121 83 -48 157 -91 165 -96
142 -86 636 -340 870 -448 208 -96 485 -214 654 -279 50 -19 120 -46 156 -60
169 -67 719 -251 798 -268 15 -3 94 -26 187 -54 172 -52 759 -192 905 -216 19
-3 42 -8 50 -10 8 -2 27 -6 43 -9 15 -3 54 -10 87 -16 105 -18 392 -66 450
-74 98 -14 352 -46 405 -51 33 -3 71 -7 85 -9 14 -3 84 -9 155 -16 72 -6 153
-13 180 -16 28 -2 97 -7 155 -10 58 -2 123 -7 145 -9 191 -23 1212 -23 1480 0
28 3 93 7 145 10 52 3 118 8 145 10 28 2 82 6 120 9 39 3 90 8 115 11 25 2 72
7 105 10 33 3 74 7 90 9 17 2 59 7 95 11 36 4 74 9 84 11 11 2 47 6 80 9 34 3
68 7 76 10 8 2 33 6 55 9 91 11 231 33 390 60 94 17 165 30 250 47 55 11 111
22 125 24 47 9 72 14 88 19 9 3 33 8 52 11 19 3 109 24 200 46 91 22 174 42
185 45 43 9 142 35 245 63 41 12 82 23 90 25 33 9 221 66 330 100 63 20 122
38 130 40 23 6 392 135 415 146 11 4 54 21 95 36 41 14 79 31 84 35 6 5 16 9
22 9 11 0 285 110 349 140 11 5 65 29 120 54 199 88 524 247 685 334 36 19 90
48 120 65 151 82 404 230 530 311 19 13 62 40 95 61 206 131 506 341 704 494
68 53 135 105 150 116 46 34 364 300 436 365 377 338 696 664 1036 1060 292
340 706 915 938 1302 315 525 588 1070 783 1563 21 55 45 114 52 130 7 17 23
59 36 95 12 36 29 80 37 98 25 58 190 559 238 727 72 247 160 598 200 794 2 9
11 50 20 91 9 41 18 88 20 104 2 15 6 35 9 45 3 9 8 36 11 61 4 24 8 47 10 50
2 3 6 24 9 46 4 22 8 49 10 59 6 34 19 109 22 130 2 16 20 135 39 255 6 41 14
102 19 145 3 22 8 59 11 83 3 23 7 59 10 80 2 20 7 66 10 102 3 36 7 76 10 90
2 14 6 61 10 105 3 44 8 98 10 120 41 435 50 1196 20 1740 -10 185 -38 520
-50 610 -3 17 -7 55 -10 85 -3 30 -7 71 -10 90 -3 19 -7 55 -10 80 -3 25 -7
56 -10 70 -2 14 -6 48 -10 75 -3 28 -11 79 -16 115 -6 36 -13 79 -15 95 -5 28
-58 331 -69 385 -12 65 -19 99 -61 290 -25 113 -51 228 -59 255 -8 28 -16 61
-19 75 -3 14 -10 43 -16 65 -6 22 -15 56 -20 75 -5 19 -13 51 -19 70 -5 19
-13 46 -16 60 -4 14 -28 93 -52 175 -25 83 -47 159 -50 170 -3 11 -7 27 -10
35 -3 8 -7 20 -9 25 -3 13 -103 303 -143 415 -61 174 -210 538 -332 810 -72
161 -274 559 -383 755 -365 654 -867 1361 -1334 1877 -141 156 -172 190 -241
262 -195 202 -396 397 -555 541 -49 44 -99 89 -112 100 -317 288 -897 723
-1319 990 -104 66 -366 225 -371 225 -2 0 -21 11 -42 23 -186 118 -680 368
-1022 519 -74 32 -148 65 -165 73 -51 23 -334 135 -435 172 -52 19 -104 38
-115 43 -68 31 -656 221 -755 245 -8 2 -98 27 -200 54 -102 28 -198 54 -214
57 -16 2 -32 7 -36 9 -3 2 -17 6 -31 8 -13 3 -64 15 -114 26 -86 21 -212 48
-265 57 -14 3 -41 9 -60 14 -19 5 -87 18 -150 29 -63 12 -126 23 -140 26 -13
3 -42 7 -65 11 -22 3 -58 9 -80 14 -22 5 -64 11 -94 15 -30 4 -63 9 -75 11
-11 2 -38 6 -61 9 -22 4 -51 8 -65 10 -14 2 -45 6 -70 10 -25 3 -61 7 -80 10
-61 8 -113 14 -170 20 -30 3 -66 8 -80 10 -14 2 -59 6 -100 10 -41 4 -86 8
-100 10 -41 6 -181 16 -410 30 -52 4 -117 8 -145 11 -59 5 -1082 14 -1087 9z"/>
    </g>
</svg>
